<?xml version="1.0" ?><svg id="Layer_1" style="enable-background:new 0 0 71.2 86.3;" version="1.1" viewBox="0 0 71.2 86.3" xml:space="preserve" xmlns="http://www.w3.org/2000/svg" xmlns:xlink="http://www.w3.org/1999/xlink"><title/><path d="M67.2,20.5H4c-2.2,0-4-1.8-4-4V4c0-2.2,1.8-4,4-4h63.2c2.2,0,4,1.8,4,4v12.6C71.2,18.7,69.4,20.5,67.2,20.5z M4,1.5  C2.6,1.5,1.5,2.6,1.5,4v12.6C1.5,17.9,2.6,19,4,19h63.2c1.4,0,2.5-1.1,2.5-2.5V4c0-1.4-1.1-2.5-2.5-2.5L4,1.5z"/><path d="M9.6,12.7c-1.3,0-2.4-1.1-2.4-2.4c0-1.3,1.1-2.4,2.4-2.4c1.3,0,2.4,1.1,2.4,2.4C12,11.6,10.9,12.7,9.6,12.7z M9.6,9.3  c-0.5,0-0.9,0.4-0.9,0.9c0,0.5,0.4,0.9,0.9,0.9c0.5,0,0.9-0.4,0.9-0.9C10.5,9.8,10.1,9.3,9.6,9.3z"/><path d="M64,17h-3.2c-0.4,0-0.7-0.3-0.8-0.8V4.1c0-0.4,0.3-0.7,0.8-0.8H64c0.4,0,0.7,0.3,0.7,0.8v12.2C64.7,16.7,64.4,17,64,17z   M61.5,15.5h1.7V4.9h-1.7V15.5z"/><path d="M58.1,17h-3.2c-0.4,0-0.7-0.3-0.8-0.8V4.1c0-0.4,0.3-0.7,0.8-0.8h3.2c0.4,0,0.7,0.3,0.8,0.8v12.2C58.9,16.7,58.5,17,58.1,17  z M55.6,15.5h1.7V4.9h-1.7V15.5z"/><path d="M52.3,17H49c-0.4,0-0.7-0.3-0.8-0.8V4.1c0-0.4,0.3-0.7,0.8-0.8h3.2c0.4,0,0.7,0.3,0.8,0.8v12.2C53,16.7,52.7,17,52.3,17z   M49.8,15.5h1.7V4.9h-1.7V15.5z"/><path d="M67.2,42.4H4c-2.2,0-4-1.8-4-4V25.9c0-2.2,1.8-4,4-4h63.2c2.2,0,4,1.8,4,4v12.6C71.2,40.7,69.4,42.4,67.2,42.4z M4,23.4  c-1.4,0-2.5,1.1-2.5,2.5v12.6c0,1.4,1.1,2.5,2.5,2.5h63.2c1.4,0,2.5-1.1,2.5-2.5V25.9c0-1.4-1.1-2.5-2.5-2.5H4z"/><path d="M9.6,34.6c-1.3,0-2.4-1.1-2.4-2.4c0-1.3,1.1-2.4,2.4-2.4c1.3,0,2.4,1.1,2.4,2.4C12,33.5,10.9,34.6,9.6,34.6z M9.6,31.3  c-0.5,0-0.9,0.4-0.9,0.9c0,0.5,0.4,0.9,0.9,0.9s0.9-0.4,0.9-0.9c0,0,0,0,0,0C10.5,31.7,10.1,31.3,9.6,31.3z"/><path d="M64,39h-3.2c-0.4,0-0.7-0.3-0.8-0.8V26.1c0-0.4,0.3-0.7,0.8-0.8H64c0.4,0,0.7,0.3,0.7,0.8v12.2C64.7,38.6,64.4,39,64,39z   M61.5,37.5h1.7V26.8h-1.7V37.5z"/><path d="M58.1,39h-3.2c-0.4,0-0.7-0.3-0.8-0.8V26.1c0-0.4,0.3-0.7,0.8-0.8h3.2c0.4,0,0.7,0.3,0.8,0.8v12.2  C58.9,38.6,58.5,39,58.1,39z M55.6,37.5h1.7V26.8h-1.7V37.5z"/><path d="M52.3,39H49c-0.4,0-0.7-0.3-0.8-0.8V26.1c0-0.4,0.3-0.7,0.8-0.8h3.2c0.4,0,0.7,0.3,0.8,0.8v12.2C53,38.6,52.7,39,52.3,39z   M49.8,37.5h1.7V26.8h-1.7V37.5z"/><path d="M67.2,64.4H4c-2.2,0-4-1.8-4-4V47.8c0-2.2,1.8-4,4-4h63.2c2.2,0,4,1.8,4,4v12.6C71.2,62.6,69.4,64.4,67.2,64.4z M4,45.4  c-1.4,0-2.5,1.1-2.5,2.5v12.6c0,1.4,1.1,2.5,2.5,2.5h63.2c1.4,0,2.5-1.1,2.5-2.5V47.8c0-1.4-1.1-2.5-2.5-2.5L4,45.4z"/><path d="M9.6,56.5c-1.3,0-2.4-1.1-2.4-2.4c0-1.3,1.1-2.4,2.4-2.4c1.3,0,2.4,1.1,2.4,2.4c0,0,0,0,0,0C12,55.4,10.9,56.5,9.6,56.5z   M9.6,53.2c-0.5,0-0.9,0.4-0.9,0.9c0,0.5,0.4,0.9,0.9,0.9c0.5,0,0.9-0.4,0.9-0.9C10.5,53.6,10.1,53.2,9.6,53.2z"/><path d="M64,60.9h-3.2c-0.4,0-0.7-0.3-0.8-0.8V48c0-0.4,0.3-0.7,0.8-0.8H64c0.4,0,0.7,0.3,0.7,0.8v12.2C64.7,60.6,64.4,60.9,64,60.9  z M61.5,59.4h1.7V48.7h-1.7V59.4z"/><path d="M58.1,60.9h-3.2c-0.4,0-0.7-0.3-0.8-0.8V48c0-0.4,0.3-0.7,0.8-0.8h3.2c0.4,0,0.7,0.3,0.8,0.8v12.2  C58.9,60.6,58.5,60.9,58.1,60.9z M55.6,59.4h1.7V48.7h-1.7V59.4z"/><path d="M52.3,60.9H49c-0.4,0-0.7-0.3-0.8-0.8V48c0-0.4,0.3-0.7,0.8-0.8h3.2c0.4,0,0.7,0.3,0.8,0.8v12.2  C53,60.6,52.7,60.9,52.3,60.9z M49.8,59.4h1.7V48.7h-1.7V59.4z"/><path d="M67.2,86.3H4c-2.2,0-4-1.8-4-4V69.7c0-2.2,1.8-4,4-4h63.2c2.2,0,4,1.8,4,4v12.6C71.2,84.5,69.4,86.3,67.2,86.3z M4,67.3  c-1.4,0-2.5,1.1-2.5,2.5v12.6c0,1.4,1.1,2.5,2.5,2.5h63.2c1.4,0,2.5-1.1,2.5-2.5V69.7c0-1.4-1.1-2.5-2.5-2.5L4,67.3z"/><path d="M9.6,78.5c-1.3,0-2.4-1.1-2.4-2.4c0-1.3,1.1-2.4,2.4-2.4c1.3,0,2.4,1.1,2.4,2.4c0,0,0,0,0,0C12,77.4,10.9,78.5,9.6,78.5z   M9.6,75.1c-0.5,0-0.9,0.4-0.9,0.9c0,0.5,0.4,0.9,0.9,0.9c0.5,0,0.9-0.4,0.9-0.9C10.5,75.5,10.1,75.1,9.6,75.1z"/><path d="M64,82.8h-3.2c-0.4,0-0.7-0.3-0.8-0.8V69.9c0-0.4,0.3-0.7,0.8-0.8H64c0.4,0,0.7,0.3,0.7,0.8v12.2  C64.7,82.5,64.4,82.8,64,82.8z M61.5,81.3h1.7V70.7h-1.7V81.3z"/><path d="M58.1,82.8h-3.2c-0.4,0-0.7-0.3-0.8-0.8V69.9c0-0.4,0.3-0.7,0.8-0.8h3.2c0.4,0,0.7,0.3,0.8,0.8v12.2  C58.9,82.5,58.5,82.8,58.1,82.8z M55.6,81.3h1.7V70.7h-1.7V81.3z"/><path d="M52.3,82.8H49c-0.4,0-0.7-0.3-0.8-0.8V69.9c0-0.4,0.3-0.7,0.8-0.8h3.2c0.4,0,0.7,0.3,0.8,0.8v12.2  C53,82.5,52.7,82.8,52.3,82.8z M49.8,81.3h1.7V70.7h-1.7V81.3z"/></svg>